HIERARCHY
ROOT Hips
{
 OFFSET 0.000000 0.000000 0.000000
 CHANNELS 6 Xposition Yposition Zposition Yrotation Xrotation Zrotation
 JOINT Chest
 {
  OFFSET 0.000000 9.585900 0.002600
  CHANNELS 3 Yrotation Xrotation Zrotation
  JOINT Chest2
  {
   OFFSET 0.000000 9.601200 -0.005300
   CHANNELS 3 Yrotation Xrotation Zrotation
   JOINT Chest3
   {
    OFFSET 0.000000 9.561800 0.000000
    CHANNELS 3 Yrotation Xrotation Zrotation
    JOINT Chest4
    {
     OFFSET 0.000000 9.552100 0.000000
     CHANNELS 3 Yrotation Xrotation Zrotation
     JOINT Neck
     {
      OFFSET 0.000000 14.453000 0.000000
      CHANNELS 3 Yrotation Xrotation Zrotation
      JOINT Head
      {
       OFFSET 0.000000 8.936500 -0.011300
       CHANNELS 3 Yrotation Xrotation Zrotation
       End Site
       {
        OFFSET 0.000000 17.073600 -0.006000
       }
      }
     }
     JOINT RightCollar
     {
      OFFSET -2.921100 9.558500 0.000000
      CHANNELS 3 Yrotation Xrotation Zrotation
      JOINT RightShoulder
      {
       OFFSET -13.519700 0.000000 0.000000
       CHANNELS 3 Yrotation Xrotation Zrotation
       JOINT RightElbow
       {
        OFFSET 0.000000 -29.696600 0.000000
        CHANNELS 3 Yrotation Xrotation Zrotation
        JOINT RightWrist
        {
         OFFSET 0.000000 -24.004700 0.000000
         CHANNELS 3 Yrotation Xrotation Zrotation
         End Site
         {
          OFFSET 0.000000 -17.728500 0.000000
         }
        }
       }
      }
     }
     JOINT LeftCollar
     {
      OFFSET 2.921100 9.558500 0.000000
      CHANNELS 3 Yrotation Xrotation Zrotation
      JOINT LeftShoulder
      {
       OFFSET 13.519700 0.000000 0.000000
       CHANNELS 3 Yrotation Xrotation Zrotation
       JOINT LeftElbow
       {
        OFFSET 0.000000 -29.696600 0.000000
        CHANNELS 3 Yrotation Xrotation Zrotation
        JOINT LeftWrist
        {
         OFFSET 0.000000 -24.004700 0.000000
         CHANNELS 3 Yrotation Xrotation Zrotation
         End Site
         {
          OFFSET 0.000000 -17.728500 0.000000
         }
        }
       }
      }
     }
    }
   }
  }
 }
 JOINT RightHip
 {
  OFFSET -7.771700 -0.012900 -0.001300
  CHANNELS 3 Yrotation Xrotation Zrotation
  JOINT RightKnee
  {
   OFFSET 0.000000 -40.869800 0.001200
   CHANNELS 3 Yrotation Xrotation Zrotation
   JOINT RightAnkle
   {
    OFFSET 0.000000 -39.717900 0.002100
    CHANNELS 3 Yrotation Xrotation Zrotation
    JOINT RightToe
    {
     OFFSET 0.000000 -4.965400 11.033500
     CHANNELS 3 Yrotation Xrotation Zrotation
     End Site
     {
      OFFSET 0.000000 -1.423100 5.872300
     }
    }
   }
  }
 }
 JOINT LeftHip
 {
  OFFSET 7.771700 -0.012900 -0.001300
  CHANNELS 3 Yrotation Xrotation Zrotation
  JOINT LeftKnee
  {
   OFFSET 0.000000 -40.869800 0.001200
   CHANNELS 3 Yrotation Xrotation Zrotation
   JOINT LeftAnkle
   {
    OFFSET 0.000000 -39.717900 0.002100
    CHANNELS 3 Yrotation Xrotation Zrotation
    JOINT LeftToe
    {
     OFFSET 0.000000 -4.965400 11.033500
     CHANNELS 3 Yrotation Xrotation Zrotation
     End Site
     {
      OFFSET 0.000000 -1.423100 5.872300
     }
    }
   }
  }
 }
}
MOTION
Frames: 6
Frame Time: 0.008333
0.000000 85.388000 0.000000 0.000000 -5.767877 0.000000 0.000000 11.653817 0.000000 0.000000 -5.885947 0.000000 0.000000 -0.000000 0.000000 0.000000 -0.000000 0.000000 0.000000 12.528835 0.000000 0.000000 0.711642 0.000000 0.000000 -0.000000 0.000000 0.000000 0.000000 -90.000000 0.000000 -2.309062 0.000000 0.000000 2.309062 0.000000 0.000000 -0.000000 0.000000 0.000000 -0.000000 90.000000 0.000000 -2.309062 0.000000 0.000000 2.309062 0.000000 0.000000 8.520406 0.000000 0.000000 1.905762 0.000000 -0.000000 -4.658285 0.000000 0.000000 -0.000000 0.000000 0.000000 8.520406 0.000000 0.000000 1.905762 0.000000 -0.000000 -4.658285 0.000000 0.000000 -0.000000 0.000000
-87.755565 44.882789 18.365118 173.677441 -15.615132 -2.011671 2.887410 18.097380 4.923425 0.287739 2.105384 0.545201 0.467666 3.516637 0.895239 2.535102 15.798603 4.340622 -7.484842 14.178799 -4.057187 -7.199059 -10.650455 -2.662810 20.383478 -2.210372 -8.889892 26.003484 -32.352033 -48.285877 77.102705 -86.138336 -61.486979 -5.014262 -9.095078 -49.544824 -10.747294 -4.160232 -1.079871 0.217201 16.151630 24.076032 -124.996539 -64.024834 92.542287 -3.794646 -11.182509 -1.254747 0.488040 -75.103734 11.462142 -144.937424 72.239834 -142.566628 -11.975873 -22.429144 7.580080 -0.072202 -0.147901 -0.007764 3.790219 -60.228197 0.518225 175.500806 58.735912 174.885788 -2.317520 -41.097465 2.792150 0.075395 -0.096362 0.059963
-87.757130 44.887436 18.365254 173.683702 -15.560831 -2.034075 2.876201 18.068835 4.932878 0.250144 2.173131 0.530766 0.485989 3.469994 0.902241 2.510201 15.815781 4.344925 -7.456482 14.135760 -4.063327 -7.166051 -10.697635 -2.675653 20.403827 -2.266390 -8.931586 25.826913 -32.296525 -48.315808 77.280748 -86.138675 -61.638850 -5.008957 -9.138295 -49.568714 -10.706014 -4.186898 -1.091858 0.242167 16.129835 24.071824 -124.898555 -64.089288 92.468291 -3.750785 -11.183122 -1.286588 0.563651 -75.135879 11.382211 -144.847468 72.245674 -142.464128 -11.916647 -22.436100 7.587123 -0.106920 -0.142504 -0.007547 3.757153 -60.287339 0.544076 175.496682 58.733292 174.893218 -2.316592 -41.093557 2.771103 0.082222 -0.095808 0.069787
-87.758951 44.892882 18.364169 173.679197 -15.505923 -2.054881 2.861305 18.072580 4.934509 0.270293 2.130085 0.539144 0.429061 3.567131 0.892234 2.519536 15.781193 4.348110 -7.420179 14.081944 -4.067393 -7.140568 -10.736798 -2.684129 20.331994 -2.349815 -9.018084 25.703968 -32.250364 -48.290138 77.408800 -86.182363 -61.722954 -5.021456 -9.181246 -49.593070 -10.664246 -4.232931 -1.098961 0.256546 16.187576 23.949654 -124.740072 -64.038964 92.354913 -3.731180 -11.186757 -1.311186 0.603948 -75.172589 11.348951 -144.798942 72.255970 -142.402328 -11.891966 -22.443985 7.600240 -0.135823 -0.135141 -0.022609 3.729791 -60.349151 0.579201 175.498280 58.727719 174.901935 -2.317278 -41.075813 2.746259 0.082837 -0.098703 0.073515
-87.755100 44.898850 18.362937 173.649935 -15.450992 -2.104364 2.879346 18.078507 4.974954 0.242918 2.180462 0.533108 0.441888 3.540267 0.896195 2.513808 15.774237 4.347161 -7.371052 14.014858 -4.069368 -7.126569 -10.758379 -2.682996 20.295590 -2.419344 -9.099527 25.536461 -32.202171 -48.271475 77.484989 -86.265154 -61.741592 -5.052179 -9.221887 -49.618264 -10.614130 -4.298025 -1.099202 0.256500 16.231435 23.863575 -124.591663 -64.050320 92.228957 -3.713964 -11.190116 -1.340347 0.514888 -75.208554 11.476041 -144.758749 72.270290 -142.347633 -11.893986 -22.459950 7.594641 -0.135135 -0.108683 -0.025749 3.667323 -60.421004 0.684464 175.501344 58.717779 174.914050 -2.290259 -41.064075 2.723128 0.065691 -0.102531 0.068014
-87.756721 44.905496 18.356751 173.645940 -15.417943 -2.124605 2.862609 18.105832 4.977782 0.231536 2.198651 0.530432 0.447849 3.529128 0.898313 2.502126 15.784178 4.344587 -7.344217 13.971336 -4.062702 -7.087963 -10.787850 -2.685500 20.275762 -2.479240 -9.170277 25.354816 -32.144885 -48.265602 77.541514 -86.366976 -61.738048 -5.096133 -9.259070 -49.646233 -10.592647 -4.325936 -1.098728 0.275498 16.227245 23.807536 -124.497573 -64.039869 92.157820 -3.647111 -11.176180 -1.379152 0.505067 -75.222267 11.502847 -144.703626 72.279355 -142.282916 -11.929300 -22.453201 7.591911 -0.121577 -0.106976 -0.013744 3.639433 -60.455360 0.719550 175.500402 58.713511 174.917812 -2.286878 -41.057643 2.715270 0.065887 -0.111201 0.069000
